<svg xmlns="http://www.w3.org/2000/svg" viewBox="0 0 512 512">
  <rect width="512" height="512" rx="128" fill="#0D6EFD"/>
  <rect x="72" y="72" width="368" height="368" rx="110" fill="#FFFFFF"/>
  <g transform="translate(74 92)">
    <path fill="#0D6EFD" d="M118 0c11 0 20 9 20 20v56h56c11 0 20 9 20 20v54c0 11-9 20-20 20h-56v56c0 11-9 20-20 20H64c-11 0-20-9-20-20v-56H-12c-11 0-20-9-20-20V96c0-11 9-20 20-20h56V20c0-11 9-20 20-20h54z" transform="translate(20 10)"/>
    <path fill="none" stroke="#FFFFFF" stroke-linecap="round" stroke-linejoin="round" stroke-width="12" d="M36 101h37l13-31 24 77 24-51h43"/>
    <path fill="#28A745" d="M196 75c8 0 15 6.4 15 14.5 0 7-4.3 12.7-10.8 18.6l-2.5 2.2-9.2 8.6-9.3-8.6-2.4-2.2c-6.5-5.9-10.8-11.6-10.8-18.6 0-8.1 7-14.5 15-14.5 5.5 0 10.2 2.4 13.5 6.8 3.4-4.4 8.1-6.8 13.5-6.8z"/>
    <path fill="none" stroke="#28A745" stroke-linecap="round" stroke-linejoin="round" stroke-width="10" d="M186 60c4.7-14 13.6-22 27-22 19.4 0 33 14.5 33 35.5 0 28.7-19 43-19 58.5v31c0 10.8-8.7 19.5-19.5 19.5H191"/>
    <circle cx="192" cy="194" r="13" fill="#28A745"/>
  </g>
</svg>
