<svg xmlns="http://www.w3.org/2000/svg" viewBox="0 0 820 240" role="img" aria-labelledby="title desc">
  <title id="title">CRH Health Intelligence</title>
  <desc id="desc">Marca institucional de CRH Health Intelligence para plataforma inteligente de IPS.</desc>
  <defs>
    <linearGradient id="crhBlueText" x1="0%" x2="100%" y1="0%" y2="100%">
      <stop offset="0%" stop-color="#0D6EFD" />
      <stop offset="100%" stop-color="#0A4FB3" />
    </linearGradient>
    <linearGradient id="crhGreenText" x1="0%" x2="100%" y1="100%" y2="0%">
      <stop offset="0%" stop-color="#1FA971" />
      <stop offset="100%" stop-color="#11C5A1" />
    </linearGradient>
  </defs>

  <g transform="translate(24 28)">
    <rect width="178" height="178" rx="42" fill="#F4F8FF" />
    <path d="M44 32h46c30 0 49 18 49 46 0 19-10 33-27 41l31 25h-35l-25-19H73v19H44V32zm29 64h16c14 0 21-6 21-17 0-12-7-18-21-18H73v35z" fill="url(#crhBlueText)" />
    <path d="M53 133c13-23 29-34 50-34 18 0 31 8 45 24" fill="none" stroke="url(#crhGreenText)" stroke-linecap="round" stroke-width="14" />
    <circle cx="126" cy="74" r="10" fill="#11C5A1" />
  </g>

  <g fill="#123D82" font-family="Montserrat, Arial, sans-serif">
    <text x="246" y="92" font-size="76" font-weight="800">CRH Health</text>
    <text x="246" y="156" fill="#0D6EFD" font-size="70" font-weight="800">Intelligence</text>
  </g>

  <g transform="translate(248 192)">
    <text fill="#255BAE" font-family="Montserrat, Arial, sans-serif" font-size="26" font-weight="600">
      Plataforma Inteligente HIS + ERP + BI + AI para IPS
    </text>
  </g>
</svg>
