<svg xmlns="http://www.w3.org/2000/svg" viewBox="0 0 160 160" role="img" aria-labelledby="title desc">
  <title id="title">CRH Health Intelligence</title>
  <desc id="desc">Isotipo de CRH Health Intelligence para plataforma inteligente de IPS.</desc>
  <defs>
    <linearGradient id="crhBlue" x1="16" x2="144" y1="16" y2="144" gradientUnits="userSpaceOnUse">
      <stop offset="0" stop-color="#0D6EFD" />
      <stop offset="1" stop-color="#0A4FB3" />
    </linearGradient>
    <linearGradient id="crhGreen" x1="32" x2="128" y1="128" y2="32" gradientUnits="userSpaceOnUse">
      <stop offset="0" stop-color="#1FA971" />
      <stop offset="1" stop-color="#11C5A1" />
    </linearGradient>
  </defs>
  <rect width="160" height="160" rx="36" fill="#F4F8FF" />
  <path d="M46 34h38c24 0 40 15 40 38 0 16-8 28-21 34l25 20h-28l-20-16H70v16H46V34zm24 54h13c11 0 17-5 17-14 0-10-6-15-17-15H70v29z" fill="url(#crhBlue)" />
  <path d="M52 118c10-18 23-27 39-27 14 0 24 6 34 19" fill="none" stroke="url(#crhGreen)" stroke-linecap="round" stroke-width="12" />
  <circle cx="113" cy="70" r="8" fill="#11C5A1" />
</svg>
